<svg width="80" height="67" viewBox="0 0 80 67" fill="none" xmlns="http://www.w3.org/2000/svg">
<path fill-rule="evenodd" clip-rule="evenodd" d="M29.118 12.2862C33.0346 12.6638 37.474 12.364 41.4136 13.618C50.2242 16.4231 52.7475 25.0039 47.5742 32.7339C42.3965 40.4701 30.6691 43.9464 22.1314 40.2764C17.0503 38.0921 14.5412 34.0551 14.699 28.344C14.7264 27.358 14.7025 26.3719 14.7025 24.9313C13.4759 25.8864 12.6516 26.7973 11.6235 27.2483C10.7053 27.6516 9.2917 27.9823 8.59242 27.5481C7.85325 27.0874 7.25412 25.6317 7.37111 24.7094C7.81248 21.2162 9.65154 18.4182 12.6029 16.4815C14.6201 15.1567 16.53 16.2038 16.7543 18.6322C16.819 19.3423 16.764 20.0631 16.764 20.9191C19.5833 18.6145 22.2697 16.4187 25.5224 13.7595C23.9164 14.0672 22.9317 14.4864 22.0126 14.3714C21.0032 14.2468 19.8439 13.8364 19.173 13.1413C18.8592 12.8177 19.2775 11.2727 19.8182 10.7297C22.8927 7.63898 26.6382 5.85173 31.0643 5.92424C33.1294 5.95785 33.8154 7.58238 32.4461 9.19011C31.3276 10.5078 29.9068 11.5681 29.118 12.2862Z" fill="#151619"/>
<path fill-rule="evenodd" clip-rule="evenodd" d="M55.7831 32.7498C61.4748 32.7533 64.3207 37.0706 61.6849 42.3068C59.0047 47.6332 54.5777 50.9424 48.3808 51.1405C42.3691 51.3324 40.304 47.4103 42.1776 41.984C43.9334 36.8991 50.4033 32.7471 55.7831 32.7498Z" fill="#151619"/>
<path fill-rule="evenodd" clip-rule="evenodd" d="M61.4428 29.5221C56.3067 29.4867 51.7299 24.7918 51.7432 19.5724C51.7521 15.7194 54.4685 12.8718 58.1121 12.8957C63.1985 12.9301 68.4586 18.2096 68.4329 23.2575C68.4134 27.1441 65.7253 29.5504 61.4428 29.5221Z" fill="#151619"/>
<path fill-rule="evenodd" clip-rule="evenodd" d="M27.6494 55.7454C25.2644 55.0856 22.7943 54.6346 20.5183 53.7087C18.2671 52.7926 16.6035 50.9832 16.6407 48.3894C16.6771 45.8576 18.4222 44.363 20.6787 43.5919C25.0844 42.0859 29.4973 42.2176 33.6629 44.3197C35.9796 45.4897 37.8488 47.3167 37.2922 50.2899C36.7285 53.309 34.1991 54.2959 31.6652 55.022C30.4412 55.3731 29.0834 55.2616 27.7859 55.3607C27.7407 55.4889 27.6955 55.6163 27.6494 55.7454Z" fill="#151619"/>
<path fill-rule="evenodd" clip-rule="evenodd" d="M73.7438 35.6284C78.8595 35.5974 81.1168 39.248 78.9401 43.3637C77.0142 47.0072 72.1901 49.2207 68.7894 48.0215C65.5022 46.8621 64.2755 43.9836 65.8257 40.8619C67.5211 37.4492 70.437 35.8813 73.7438 35.6284Z" fill="#151619"/>
<path fill-rule="evenodd" clip-rule="evenodd" d="M36.5736 66.819C34.5307 66.2468 32.9292 66.0372 31.559 65.3633C28.5571 63.8856 28.3603 60.5472 31.1468 58.6698C34.4997 56.4112 38.2257 56.2476 41.8763 57.6705C45.0359 58.9015 45.4551 62.3831 42.6199 64.2995C40.7808 65.5411 38.4543 66.0646 36.5736 66.819Z" fill="#151619"/>
<path fill-rule="evenodd" clip-rule="evenodd" d="M46.4885 13.1751C44.1043 12.4216 41.4251 11.9158 39.0773 10.744C36.4308 9.42284 36.6072 7.15098 39.158 5.66352C42.455 3.74185 50.3749 4.15661 53.3812 6.40902C55.5756 8.05123 55.5136 10.2975 52.9956 11.4153C51.0927 12.2598 48.9382 12.5393 46.4885 13.1751Z" fill="#151619"/>
<path fill-rule="evenodd" clip-rule="evenodd" d="M15.961 39.5681C16.1587 41.9655 15.213 43.8774 13.038 44.7918C10.7319 45.7602 8.79712 44.5372 7.38969 42.8083C5.58609 40.5921 4.40998 38.0443 5.25639 35.0712C6.37134 31.1553 10.2303 29.9898 12.976 32.9753C14.5695 34.7068 15.4434 37.0981 16.6408 39.1913C16.4148 39.3169 16.1879 39.4425 15.961 39.5681Z" fill="#151619"/>
<path fill-rule="evenodd" clip-rule="evenodd" d="M62.4355 2.97681C64.4722 3.97788 66.2935 4.53943 67.6487 5.66254C68.4596 6.33376 69.1066 8.08032 68.7902 8.9797C68.4667 9.90029 66.8457 10.965 65.8451 10.9146C64.0734 10.8262 62.128 10.2585 60.6691 9.27772C59.6526 8.59501 58.5881 6.66008 58.8868 5.69792C59.2289 4.5978 61.0556 3.95842 62.4355 2.97681Z" fill="#151619"/>
<path fill-rule="evenodd" clip-rule="evenodd" d="M10.2711 51.321C9.41585 52.5308 8.84242 54.1995 7.86927 54.4763C6.91207 54.7478 5.18824 53.905 4.45971 53.0145C3.53087 51.8781 2.84222 50.2023 2.844 48.7608C2.84577 47.6076 3.78878 46.0114 4.78586 45.4605C5.46653 45.0837 7.31711 45.8628 8.00221 46.6685C9.00904 47.8544 9.43978 49.524 10.2711 51.321Z" fill="#151619"/>
<path fill-rule="evenodd" clip-rule="evenodd" d="M35.6349 4.2414C34.6564 3.61794 33.6851 2.99802 32.7119 2.37987C33.6851 1.6556 34.5652 0.573166 35.6517 0.298137C37.1203 -0.0732852 38.7892 -0.0520605 40.295 0.220316C41.8451 0.500651 42.1004 1.69716 40.6735 2.47626C39.2581 3.24918 37.5998 3.57726 35.6349 4.2414Z" fill="#151619"/>
<path fill-rule="evenodd" clip-rule="evenodd" d="M4.92321 26.0862C4.82926 28.9108 2.90601 31.7601 1.43299 31.5691C0.86665 31.4957 0.0397402 30.4628 0.00428856 29.8305C-0.112702 27.7364 2.19077 24.5961 3.62567 24.8207C4.23633 24.9171 4.71227 25.8669 4.92321 26.0862Z" fill="#151619"/>
<path fill-rule="evenodd" clip-rule="evenodd" d="M12.6029 14.3424C12.1137 13.0008 11.6901 12.3659 11.7246 11.7575C11.7494 11.3153 12.2981 10.7299 12.7572 10.5167C14.3782 9.76504 16.0586 9.14689 17.7168 8.47656C17.8179 8.97621 18.1733 9.75885 17.9801 9.9313C16.4317 11.3188 14.7779 12.5896 12.6029 14.3424Z" fill="#151619"/>
</svg>
