<svg viewBox="0 0 33 32" fill="none" xmlns="http://www.w3.org/2000/svg">
<path d="M10.1388 24.7158H16.8047C16.8607 24.7151 16.9162 24.7045 16.9684 24.6844C17.0206 24.6638 17.0687 24.6339 17.1102 24.5961L22.7528 19.2621C22.797 19.2214 22.8324 19.172 22.8567 19.1171C22.8789 19.0653 22.8917 19.0098 22.8946 18.9534V14.1483C22.8946 13.8873 22.683 13.6759 22.4221 13.6759C22.1613 13.6759 21.9499 13.8873 21.9499 14.1483V18.4462H19.0466C18.3267 18.4478 17.6369 18.7347 17.1281 19.2442C16.6193 19.7535 16.3332 20.4437 16.3324 21.1636V23.7708H10.1387C9.66934 23.7708 9.21921 23.5845 8.88742 23.2525C8.55547 22.9207 8.36895 22.4706 8.36895 22.0012V11.9535C8.36895 11.484 8.55529 11.0335 8.88708 10.7012C9.21887 10.3687 9.669 10.1816 10.1387 10.1808H17.9919C18.2527 10.1808 18.4642 9.96933 18.4642 9.70851C18.4642 9.44754 18.2528 9.23608 17.9919 9.23608H10.1387C9.41883 9.23775 8.72883 9.52482 8.22019 10.0341C7.71138 10.5434 7.42512 11.2336 7.42432 11.9535V22.0011C7.42515 22.7207 7.71138 23.4107 8.22036 23.9195C8.72917 24.4283 9.419 24.7146 10.1387 24.7154L10.1388 24.7158ZM19.0468 19.3911H21.251L17.2772 23.1478V21.1639C17.2772 20.6943 17.4636 20.2438 17.7954 19.9115C18.1271 19.5791 18.5773 19.3919 19.0468 19.3911Z" fill="black"/>
<path d="M21.7707 8.14676C21.6455 8.14759 21.5258 8.19729 21.4369 8.28522L14.2671 15.455C14.2161 15.5077 14.1773 15.5712 14.1537 15.6408L13.3067 18.2417C13.2535 18.4105 13.2984 18.595 13.4232 18.7203C13.5487 18.8453 13.733 18.8902 13.9019 18.8368L16.5028 17.9866V17.9868C16.5723 17.9632 16.6358 17.9244 16.6885 17.8734L23.8553 10.7036C24.0378 10.5184 24.0378 10.2212 23.8553 10.036L22.1046 8.28519C22.016 8.1966 21.896 8.14689 21.7708 8.14673L21.7707 8.14676ZM16.1026 17.1238L14.4967 17.6497L15.0226 16.0438L21.7703 9.28637L22.8534 10.3695L16.1026 17.1238Z" fill="black"/>
</svg>
