<svg xmlns="http://www.w3.org/2000/svg" x="0px" y="0px" viewBox="14.834564208984375 11.999890327453613 34.33043670654297 40.09611129760742" enable-background="new 0 0 64 64">
<g>
	
		<path fill="#FF2121FF" stroke="#E6E9EC" stroke-width="1.5" stroke-linecap="round" stroke-linejoin="round" stroke-miterlimit="10" d="   M38.043,45.03c0,3.488-2.828,6.316-6.316,6.316s-6.316-2.828-6.316-6.316H38.043z"/>
</g>
<g>
	
		<path fill="#FF2121FF" stroke="#E6E9EC" stroke-width="1.5" stroke-linecap="round" stroke-linejoin="round" stroke-miterlimit="10" d="   M47.347,38.918l-1.928-3.485c-0.726-1.311-1.106-2.778-1.106-4.267l0-5.751c0-6.75-5.422-12.54-12.35-12.663   c-7.059-0.126-12.822,5.41-12.822,12.256v6.158c0,1.49-0.38,2.956-1.106,4.267l-1.928,3.485c-1.422,2.57,0.214,6.111,3.034,6.111   h25.172C47.108,45.03,48.769,41.488,47.347,38.918z"/>
</g>
<g>
	
		<circle fill="#FF2121FF" stroke="#E6E9EC" stroke-width="1.5" stroke-linecap="round" stroke-linejoin="round" stroke-miterlimit="10" cx="43.864" cy="21.223" r="4.551"/>
</g>
</svg>