<svg viewBox="0 0 33 32" fill="none" xmlns="http://www.w3.org/2000/svg">
<path d="M10.8228 24.9566C10.7661 24.9666 10.7079 24.9666 10.651 24.9566C10.4753 24.8843 10.3604 24.7134 10.3596 24.5233V21.2214H8.46214C8.00837 21.2214 7.57337 21.0411 7.25235 20.7203C6.93156 20.3995 6.75146 19.9643 6.75146 19.5107V8.93992C6.75146 8.48614 6.93156 8.05114 7.25235 7.73034C7.57334 7.40934 8.00836 7.22925 8.46214 7.22925H20.6167C20.8518 7.25905 21.0281 7.45895 21.0281 7.69615C21.0281 7.93315 20.8518 8.13325 20.6167 8.16306H8.46214C8.04964 8.16306 7.71509 8.4974 7.71509 8.91011V19.5182C7.71509 19.7165 7.79388 19.9066 7.93396 20.0466C8.07403 20.1867 8.26392 20.2653 8.46214 20.2653H10.8227C11.0826 20.2653 11.2934 20.476 11.2934 20.7359V23.276L14.0352 20.4746C14.1213 20.3797 14.2432 20.3255 14.3712 20.3251H24.6506C24.8489 20.3251 25.0388 20.2465 25.1788 20.1063C25.3191 19.9662 25.3977 19.7763 25.3977 19.5781V12.892C25.3808 12.7579 25.4223 12.6231 25.5115 12.5218C25.6009 12.4203 25.7295 12.3623 25.8646 12.3623C25.9999 12.3623 26.1285 12.4203 26.2177 12.5218C26.3071 12.6231 26.3486 12.7579 26.3315 12.892V19.5183C26.3296 19.9656 26.1527 20.3944 25.8385 20.7129C25.5242 21.0312 25.0979 21.214 24.6506 21.2217H14.5729L11.1664 24.7852C11.0799 24.8865 10.9558 24.9484 10.8226 24.957L10.8228 24.9566Z" fill="black"/>
<path d="M18.0766 10.9868H9.26888C9.03355 10.957 8.85742 10.7569 8.85742 10.5199C8.85742 10.2829 9.03356 10.0828 9.26888 10.053H18.0766C18.2106 10.0361 18.3455 10.0776 18.447 10.1668C18.5483 10.2562 18.6065 10.3848 18.6065 10.5199C18.6065 10.6552 18.5483 10.7838 18.447 10.873C18.3455 10.9624 18.2106 11.0039 18.0766 10.9868Z" fill="black"/>
<path d="M15.3051 13.8182H9.26888C9.03355 13.7884 8.85742 13.5883 8.85742 13.3513C8.85742 13.1141 9.03356 12.9142 9.26888 12.8844H15.3051H15.3048C15.4391 12.8673 15.5739 12.9088 15.6752 12.9982C15.7767 13.0874 15.8347 13.216 15.8347 13.3513C15.8347 13.4864 15.7768 13.615 15.6752 13.7044C15.5739 13.7936 15.4391 13.8351 15.3048 13.8182H15.3051Z" fill="black"/>
<path d="M15.3051 16.6421H9.26888C9.03355 16.6123 8.85742 16.4122 8.85742 16.1752C8.85742 15.9382 9.03356 15.7381 9.26888 15.7083H15.3051H15.3048C15.4391 15.6914 15.5739 15.7327 15.6752 15.8221C15.7767 15.9115 15.8347 16.0401 15.8347 16.1752C15.8347 16.3103 15.7768 16.4389 15.6752 16.5283C15.5739 16.6177 15.4391 16.6592 15.3048 16.6421H15.3051Z" fill="black"/>
<path d="M17.2398 16.6421C17.0816 16.6454 16.9328 16.5676 16.845 16.4359C16.757 16.3042 16.7427 16.137 16.8064 15.9921L17.9568 13.1682H17.9571C17.9837 13.105 18.0246 13.0487 18.0765 13.0039L23.911 7.16947C24.0938 6.99104 24.3856 6.99104 24.5684 7.16947L26.2941 8.91015C26.3849 8.99519 26.4364 9.11421 26.436 9.23886C26.4339 9.36267 26.3829 9.48086 26.2941 9.56757L20.609 15.2452C20.5675 15.2906 20.5165 15.3262 20.4595 15.3498L17.4191 16.6198C17.3611 16.6378 17.3004 16.6453 17.2398 16.6421L17.2398 16.6421ZM18.8235 13.609L18.0765 15.3124L20.0115 14.498L25.2856 9.26867L24.2247 8.17792L18.8235 13.609Z" fill="black"/>
</svg>
