<svg viewBox="0 0 33 32" fill="none" xmlns="http://www.w3.org/2000/svg">
<mask id="mask0_68_848" style="mask-type:luminance" maskUnits="userSpaceOnUse" x="5" y="5" width="22" height="22">
<path d="M5.93945 5.92383H26.0918V26.0762H5.93945V5.92383Z" fill="white"/>
</mask>
<g mask="url(#mask0_68_848)">
<path d="M22.4936 5.92383C20.5149 5.92383 18.8952 7.54349 18.8952 9.52221C18.8952 9.84468 18.9418 10.1557 19.0224 10.4536L12.3641 13.7832C11.7036 12.9444 10.6826 12.4015 9.53832 12.4015C7.5596 12.4015 5.93994 14.0212 5.93994 15.9999C5.93994 17.9786 7.5596 19.5983 9.53832 19.5983C10.6813 19.5983 11.7029 19.0554 12.3635 18.2171L19.0226 21.5468C18.9427 21.8446 18.8955 22.1551 18.8955 22.4776C18.8955 24.4563 20.5151 26.076 22.4938 26.076C24.4726 26.076 26.0922 24.4563 26.0922 22.4776C26.0922 20.4989 24.4726 18.8792 22.4938 18.8792C21.3495 18.8792 20.3288 19.4221 19.6681 20.2609L13.0098 16.9313C13.0904 16.6334 13.1369 16.3223 13.1369 15.9999C13.1369 15.6774 13.0904 15.3669 13.0098 15.0691L19.6689 11.7394C20.3295 12.5777 21.3504 13.1206 22.4941 13.1206C24.4728 13.1206 26.0924 11.5009 26.0924 9.52221C26.0924 7.54349 24.4728 5.92383 22.4941 5.92383H22.4936ZM22.4936 7.36349C23.6946 7.36349 24.653 8.32191 24.653 9.52289C24.653 10.7239 23.6946 11.6823 22.4936 11.6823C21.2927 11.6823 20.3342 10.7239 20.3342 9.52289C20.3342 8.32191 21.2927 7.36349 22.4936 7.36349ZM9.53831 13.8405C10.7393 13.8405 11.6977 14.7989 11.6977 15.9999C11.6977 17.2009 10.7393 18.1593 9.53831 18.1593C8.33733 18.1593 7.37891 17.2009 7.37891 15.9999C7.37891 14.7989 8.33733 13.8405 9.53831 13.8405ZM22.4936 20.3184C23.6946 20.3184 24.653 21.2768 24.653 22.4778C24.653 23.6788 23.6946 24.6372 22.4936 24.6372C21.2927 24.6372 20.3342 23.6788 20.3342 22.4778C20.3342 21.2768 21.2927 20.3184 22.4936 20.3184Z" fill="black"/>
</g>
</svg>
